<?xml version="1.0" encoding="UTF-8" standalone="no"?>
<!DOCTYPE svg PUBLIC "-//W3C//DTD SVG 1.1//EN" "http://www.w3.org/Graphics/SVG/1.1/DTD/svg11.dtd">
<svg width="100%" height="100%" viewBox="0 0 294 85" version="1.1" xmlns="http://www.w3.org/2000/svg" xmlns:xlink="http://www.w3.org/1999/xlink" xml:space="preserve" xmlns:serif="http://www.serif.com/" style="fill-rule:evenodd;clip-rule:evenodd;stroke-linejoin:round;stroke-miterlimit:1.41421;">
    <g transform="matrix(1,0,0,1,-225.781,-501.94)">
        <g transform="matrix(1,0,0,1,-43.2333,0)">
            <path d="M327.333,512.741L340.595,562.233L288.251,576.259L274.989,526.766L327.333,512.741Z" style="fill:rgb(29,29,157);fill-rule:nonzero;"/>
            <path d="M269.094,531.814L269.094,582.236L282.604,582.236L269.094,531.814ZM292.998,582.236L346.49,582.236L346.49,567.902L292.998,582.236ZM332.98,506.764L346.491,557.185L346.49,506.764L332.98,506.764ZM269.093,506.764L269.093,521.097L322.587,506.764L269.093,506.764Z" style="fill:rgb(255,42,42);fill-rule:nonzero;"/>
            <path d="M332.284,504.165L349.17,567.185L283.301,584.835L267.32,525.197L266.414,521.815L332.284,504.165ZM274.989,526.766L288.251,576.259L340.595,562.233L327.333,512.741L274.989,526.766Z" style="fill:white;fill-rule:nonzero;"/>
            <g transform="matrix(1,0,0,1,43,0)">
                <path d="M266.982,523.851C267.111,523.853 267.24,523.855 267.369,523.858C265.186,524.299 263.017,525.104 260.955,526.294C251.624,531.681 248.024,542.936 252.921,551.416C256.076,556.882 261.995,559.868 268.302,559.858L268.417,559.857C271.86,559.831 275.414,558.914 278.694,557.02C280.63,555.902 282.317,554.53 283.735,552.985C281.767,556.448 278.811,559.507 275.009,561.703C271.31,563.838 267.301,564.873 263.419,564.902L263.289,564.903C256.176,564.914 249.501,561.547 245.942,555.383C240.421,545.819 244.48,533.126 255.003,527.051C258.764,524.879 262.845,523.846 266.788,523.85L266.982,523.851ZM285.149,536.48L277.794,540.33L285.558,542.923L277.309,543.275L283.092,548.963L275.582,545.748L278.239,553.404L272.956,547.259L271.96,555.367L269.95,547.509L265.499,554.464L267.161,546.448L260.136,550.872L265.14,544.287L256.933,545.304L264.288,541.454L256.524,538.862L264.773,538.509L258.99,532.822L266.5,536.036L263.844,528.38L269.127,534.525L270.122,526.417L272.132,534.275L276.584,527.321L274.921,535.336L281.946,530.912L276.942,537.497L285.149,536.48Z" style="fill:rgb(255,212,42);fill-rule:nonzero;"/>
            </g>
        </g>
        <g transform="matrix(4.21946,0,0,4.21946,-823.549,-995.535)">
            <text x="271.212px" y="369.544px" style="font-family:'CenturyGothic-Bold', 'Century Gothic', sans-serif;font-weight:700;font-size:12px;">M<tspan x="281.351px 288.613px 290.83px 298.092px 304.393px 309.012px 311.229px " y="369.544px 369.544px 369.544px 369.544px 369.544px 369.544px 369.544px ">alaysia</tspan></text>
        </g>
    </g>
</svg>
